<?xml version="1.0" encoding="UTF-8"?> <svg xmlns="http://www.w3.org/2000/svg" width="173" height="38" viewBox="0 0 173 38" fill="none"> <path fill-rule="evenodd" clip-rule="evenodd" d="M162.503 12.4896L173 6.24476L162.503 -3.11784e-05V5.05901L154 0V12.4896L162.503 7.43057V12.4896Z" fill="#F12348"></path> <path d="M0.196 26.8827H3.556L5.292 22.2067H12.908L14.616 26.8827H18.06L10.808 7.78669H7.784L0.196 26.8827ZM7.952 14.8147C8.344 13.7787 8.764 12.5187 9.072 11.4827H9.212C9.492 12.4907 9.884 13.7227 10.276 14.7867L12.04 19.6867H6.16L7.952 14.8147ZM19.9763 26.8827H23.1123V6.72269H19.9763V26.8827ZM26.7575 26.8827H29.8935V6.72269H26.7575V26.8827ZM32.2521 16.1027H34.1561V26.8827H37.2921V16.1027H40.2881V13.4707H37.2921V11.3147C37.2921 10.0267 37.8521 9.18669 39.2521 9.18669C39.7841 9.18669 40.2321 9.27069 40.7641 9.41069V6.83469C40.2041 6.66669 39.4761 6.58269 38.7201 6.58269C35.7521 6.58269 34.1561 8.23469 34.1561 11.2587V13.4707H32.2521V16.1027ZM41.1733 20.1627C41.1733 24.2227 44.2533 27.3587 48.3413 27.3587C52.5133 27.3587 55.5093 24.1107 55.5093 20.1627C55.5093 16.1027 52.5413 13.0227 48.3413 13.0227C44.2813 13.0227 41.1733 16.0187 41.1733 20.1627ZM44.3653 20.1627C44.3653 17.6707 45.9333 15.7947 48.3413 15.7947C50.8333 15.7947 52.3453 17.7827 52.3453 20.1627C52.3453 22.6547 50.7213 24.5587 48.3413 24.5587C46.1853 24.5587 44.3653 22.7387 44.3653 20.1627ZM66.3495 13.1347C66.0135 13.0787 65.6775 13.0507 65.1735 13.0507C63.3815 13.0507 62.0375 14.2267 61.4215 15.3747H61.3375V13.4707H58.2575V26.8827H61.3935V20.1067C61.3935 17.3067 62.6535 15.9067 64.7815 15.9067C65.4815 15.9067 65.9575 15.9907 66.3495 16.0467V13.1347ZM68.7028 26.8827H71.8388V19.5747C71.8388 17.1947 73.0148 15.7947 74.8628 15.7947C76.5148 15.7947 77.5228 17.2507 77.5228 19.1267V26.8827H80.6588V19.5747C80.6588 16.9707 82.1148 15.7947 83.6548 15.7947C85.5308 15.7947 86.3428 17.3627 86.3428 19.1267V26.8827H89.4508V19.1547C89.4508 15.1507 87.4348 13.0227 84.3828 13.0227C82.2268 13.0227 80.5748 14.3387 79.9028 15.5987C79.3988 14.2267 77.8308 13.0227 75.7868 13.0227C74.0788 13.0227 72.7068 13.9467 71.8668 15.1507H71.8108V13.4707H68.7028V26.8827ZM106.201 13.4707H103.149V15.2907H103.093C102.281 14.2267 100.937 13.0507 98.6967 13.0507C95.0567 13.0507 92.0327 15.9067 92.0327 20.1627C92.0327 24.9507 95.4487 27.3587 98.4727 27.3587C100.685 27.3587 102.141 26.3227 103.065 25.1747H103.149V26.8827H106.201V13.4707ZM95.2527 20.1627C95.2527 17.9787 96.5687 15.7387 99.3407 15.7387C101.525 15.7387 103.289 17.5307 103.289 20.2467C103.289 22.8227 101.385 24.6147 99.3127 24.6147C96.5407 24.6147 95.2527 22.4027 95.2527 20.1627ZM109.855 26.8827H112.991V19.7707C112.991 17.1667 114.335 15.7947 116.295 15.7947C118.087 15.7947 119.179 17.0267 119.179 19.3227V26.8827H122.315V19.1547C122.315 14.8427 119.879 13.0227 117.107 13.0227C115.623 13.0227 114.083 13.6387 113.019 15.1507H112.963V13.4707H109.855V26.8827ZM132.013 13.0227C127.617 13.0227 124.873 16.2147 124.873 20.1347C124.873 24.4747 128.009 27.3587 132.041 27.3587C135.765 27.3587 137.697 25.0907 138.425 22.6547H135.177C134.729 23.6907 133.833 24.6707 132.097 24.6707C129.661 24.6707 128.093 22.7107 128.093 20.1627C128.093 17.3347 129.717 15.6827 131.985 15.6827C133.553 15.6827 134.561 16.4387 134.981 17.5027H138.201C137.781 15.5427 135.849 13.0227 132.013 13.0227ZM146.989 13.0227C142.761 13.0227 140.185 16.2707 140.185 20.0507C140.185 24.3347 143.209 27.3587 147.325 27.3587C150.713 27.3587 152.645 25.4267 153.541 23.3827H150.321C149.621 24.3347 148.697 24.8947 147.325 24.8947C145.169 24.8947 143.321 23.0747 143.321 20.9747H153.681C153.737 20.6947 153.737 20.3307 153.737 20.0507C153.737 16.6347 151.609 13.0507 146.989 13.0227ZM146.989 15.3747C149.033 15.3747 150.405 16.9147 150.601 18.7067H143.349C143.517 16.9707 144.833 15.3747 146.989 15.3747Z" fill="black"></path> </svg> 