<svg xmlns="http://www.w3.org/2000/svg" viewBox="0 0 24 24"><clipPath id="a"><path d="M12 10v4.5h6.47c-.5 2.7-3 4.74-6.47 4.74-3.9 0-7.1-3.3-7.1-7.25S8.1 4.75 12 4.75c1.8 0 3.35.6 4.6 1.8l3.4-3.4C18 1.2 15.24 0 12 0 5.4 0 0 5.4 0 12s5.4 12 12 12c7 0 11.5-4.9 11.5-11.7 0-.8-.1-1.54-.2-2.3z"/></clipPath><filter id="b"><feGaussianBlur stdDeviation="1"/></filter><g style="clip-path:url(#a)"><foreignObject style="filter:url(#b)" height="28" transform="translate(-2 -2)" width="28"><div style="width:100%;height:100%;background:conic-gradient(#FF4641,#FD5061 40deg,#FD5061 60deg,#3186FF 85deg,#3186FF 117deg,#00A5B7 142deg,#0EBC5F 167deg,#0EBC5F 200deg,#6CC500 226deg,#FFCC00 253deg,#FFD314 268deg,#FFCC00 292deg,#FF4641 327deg)"></div></foreignObject><path fill="#3186FF" d="M11 8h16v8H11z"/></g></svg>