<svg width="4570" height="1120" viewBox="0 0 4570 1120" fill="none" xmlns="http://www.w3.org/2000/svg">
<g clip-path="url(#clip0_142_12)">
<path d="M1120 560C1120 869.279 869.279 1120 560 1120C250.721 1120 0 869.279 0 560C0 250.721 250.721 0 560 0C869.279 0 1120 250.721 1120 560Z" fill="black"/>
<path fill-rule="evenodd" clip-rule="evenodd" d="M159.997 280C159.997 257.909 177.906 240 199.997 240C260.218 240 292.417 268.627 315.896 289.503C316.122 289.704 316.347 289.904 316.572 290.104C338.034 309.181 350.798 320 379.997 320C409.196 320 421.96 309.181 443.423 290.104L444.098 289.503C467.578 268.627 499.776 240 559.997 240C620.169 240 652.456 268.58 676.012 289.432L676.706 290.045C698.289 309.145 711.161 320 740.397 320C769.559 320 782.215 309.217 803.556 290.163L804.214 289.575C827.616 268.675 859.726 240 919.997 240C942.088 240 959.997 257.909 959.997 280C959.997 302.091 942.088 320 919.997 320C890.835 320 878.179 330.783 856.838 349.838L856.18 350.425C832.778 371.325 800.669 400 740.397 400C680.225 400 647.938 371.42 624.382 350.568L623.688 349.955C602.105 330.855 589.233 320 559.997 320C530.798 320 518.034 330.819 496.572 349.896L495.896 350.497C472.417 371.373 440.219 400 379.997 400C319.776 400 287.578 371.373 264.098 350.497C263.872 350.296 263.647 350.096 263.423 349.896C241.96 330.819 229.196 320 199.997 320C177.906 320 159.997 302.091 159.997 280ZM159.997 520C159.997 497.909 177.906 480 199.997 480C260.218 480 292.417 508.627 315.896 529.503L316.572 530.104C338.034 549.181 350.798 560 379.997 560C409.196 560 421.96 549.181 443.423 530.104L444.098 529.503C467.578 508.627 499.776 480 559.997 480C620.219 480 652.417 508.627 675.896 529.503L676.572 530.104C698.034 549.181 710.798 560 739.997 560C769.196 560 781.96 549.181 803.423 530.104L804.098 529.503C827.578 508.627 859.776 480 919.997 480C942.088 480 959.997 497.909 959.997 520C959.997 542.091 942.088 560 919.997 560C890.798 560 878.034 570.819 856.572 589.896L855.896 590.497C832.417 611.373 800.219 640 739.997 640C679.776 640 647.578 611.373 624.098 590.497L623.423 589.896C601.96 570.819 589.196 560 559.997 560C530.798 560 518.034 570.819 496.572 589.896L495.896 590.497C472.417 611.373 440.219 640 379.997 640C319.776 640 287.578 611.373 264.098 590.497L263.423 589.896C241.96 570.819 229.196 560 199.997 560C177.906 560 159.997 542.091 159.997 520ZM159.997 760C159.997 737.909 177.906 720 199.997 720C260.218 720 292.416 748.627 315.896 769.503L316.572 770.104C338.034 789.181 350.798 800 379.997 800C409.196 800 421.96 789.181 443.423 770.104L444.098 769.503C467.578 748.627 499.776 720 559.997 720C620.219 720 652.417 748.627 675.896 769.503L676.572 770.104C698.034 789.181 710.798 800 739.997 800C769.196 800 781.96 789.181 803.423 770.104L804.098 769.503C827.578 748.627 859.776 720 919.997 720C942.088 720 959.997 737.909 959.997 760C959.997 782.091 942.088 800 919.997 800C890.798 800 878.034 810.819 856.572 829.896L855.896 830.497C832.417 851.373 800.219 880 739.997 880C679.776 880 647.578 851.373 624.098 830.497L623.423 829.896C601.96 810.819 589.196 800 559.997 800C530.798 800 518.034 810.819 496.572 829.896L495.896 830.497C472.417 851.373 440.219 880 379.997 880C319.776 880 287.578 851.373 264.098 830.497L263.423 829.896C241.96 810.819 229.196 800 199.997 800C177.906 800 159.997 782.091 159.997 760Z" fill="white"/>
<path d="M1349.89 805.674L1259.99 464.369L1338.47 464.391L1397.44 712.807L1464.45 506.186L1464.47 464.426L1524.23 464.442L1598.32 712.863L1657.43 464.48L1735.19 464.501L1645.81 805.756L1571.65 805.736L1498.99 582.515L1424.77 805.695L1349.89 805.674ZM1951.93 813.042C1892.41 813.025 1846.34 798.372 1813.71 769.083C1781.07 739.794 1764.77 694.909 1764.78 634.429C1764.8 579.709 1778.73 536.513 1806.58 504.841C1834.43 473.169 1876.67 457.341 1933.31 457.356C1985.15 457.371 2024.03 471.062 2049.94 498.429C2076.33 525.316 2089.52 560.12 2089.51 602.84L2089.49 666.2L1839.65 666.13C1843.48 699.251 1855.48 722.055 1875.64 734.54C1895.79 747.026 1926.51 753.274 1967.79 753.286C1985.07 753.291 2002.83 751.616 2021.07 748.261C2039.31 744.906 2055.15 740.59 2068.59 735.314L2068.58 792.914C2053.22 799.63 2035.46 804.665 2015.29 808.019C1995.61 811.374 1974.49 813.048 1951.93 813.042ZM1839.67 615.01L2020.39 615.061L2020.39 591.301C2020.4 567.781 2013.93 549.539 2000.97 536.575C1988.01 523.132 1966.18 516.406 1935.46 516.397C1898.98 516.387 1873.77 524.3 1859.85 540.136C1846.4 555.972 1839.68 580.93 1839.67 615.01ZM2353.05 813.153C2328.09 813.146 2306.49 809.78 2288.25 803.055C2270.02 796.33 2253.22 786.005 2237.86 772.081L2233.53 805.92L2165.85 805.901L2165.99 320.621L2244.47 320.643L2244.42 486.963C2274.19 467.291 2309.95 457.461 2351.71 457.473C2400.19 457.486 2438.35 471.417 2466.18 499.265C2494.49 526.633 2508.64 571.037 2508.62 632.477C2508.6 694.397 2494.67 739.993 2466.82 769.265C2438.98 798.537 2401.05 813.167 2353.05 813.153ZM2332.19 754.107C2367.71 754.117 2392.67 744.044 2407.08 723.888C2421.96 703.732 2429.41 673.255 2429.42 632.455C2429.43 590.215 2421.52 560.452 2405.69 543.168C2389.85 525.883 2364.89 517.237 2330.81 517.227C2295.29 517.217 2266.49 527.049 2244.41 546.723L2244.36 718.083C2266.91 742.089 2296.19 754.097 2332.19 754.107ZM2570.52 806.014L2570.53 767.134C2583.02 737.857 2600.3 711.462 2622.39 687.948C2644.96 664.435 2668.96 641.641 2694.41 619.568C2713.61 602.774 2729.46 588.618 2741.94 577.102C2754.9 565.105 2764.99 554.308 2772.19 544.71C2779.39 535.112 2784.43 525.273 2787.32 515.194C2790.2 504.635 2791.64 492.395 2791.65 478.475C2791.65 453.515 2784.46 434.553 2770.06 421.589C2755.67 408.625 2731.67 402.139 2698.07 402.129C2679.83 402.124 2661.11 404.039 2641.91 407.874C2623.19 411.708 2605.18 416.983 2587.9 423.699L2587.92 354.579C2604.72 348.823 2624.64 344.269 2647.69 340.915C2670.73 337.082 2692.57 335.168 2713.21 335.174C2765.05 335.188 2804.16 347.919 2830.56 373.366C2856.95 398.814 2870.14 433.617 2870.13 477.777C2870.12 499.857 2866.28 519.536 2858.59 536.814C2850.91 553.612 2840.34 569.689 2826.9 585.045C2813.45 599.921 2797.85 615.277 2780.09 631.112C2758 650.306 2737.11 669.02 2717.43 687.255C2698.22 705.009 2682.62 724.445 2670.61 745.562L2875.09 745.619L2875.08 806.099L2570.52 806.014ZM3026.84 806.141L2936.94 464.836L3015.42 464.858L3074.39 713.274L3141.41 506.653L3141.42 464.893L3201.18 464.909L3275.27 713.33L3334.38 464.946L3412.14 464.968L3322.76 806.223L3248.6 806.203L3175.95 582.982L3101.72 806.162L3026.84 806.141ZM3562.65 813.49C3541.05 813.484 3520.89 809.638 3502.17 801.953C3483.93 794.268 3469.29 782.744 3458.26 767.381C3447.22 751.538 3441.71 732.096 3441.72 709.056C3441.72 676.416 3452.77 650.259 3474.86 630.586C3497.42 610.432 3531.99 600.362 3578.55 600.374L3687.99 600.405L3687.99 585.285C3687.99 568.965 3685.36 556.004 3680.08 546.403C3675.28 536.801 3666.17 529.839 3652.73 525.515C3639.77 521.192 3620.57 519.026 3595.13 519.019C3554.81 519.008 3517.13 524.997 3482.08 536.988L3482.1 478.668C3497.46 472.432 3516.18 467.397 3538.26 463.563C3560.34 459.729 3584.11 457.816 3609.55 457.823C3659.47 457.837 3697.38 467.928 3723.3 488.095C3749.69 508.262 3762.88 541.146 3762.87 586.746L3762.81 806.346L3695.85 806.327L3690.82 771.766C3676.89 785.202 3659.61 795.517 3638.97 802.711C3618.81 809.906 3593.37 813.499 3562.65 813.49ZM3583.54 757.336C3607.06 757.342 3627.46 753.508 3644.75 745.833C3662.51 737.678 3676.91 726.882 3687.95 713.445L3687.97 653.685L3579.97 653.655C3556.93 653.648 3540.13 658.204 3529.57 667.321C3519.48 675.958 3514.44 689.397 3514.44 707.637C3514.43 725.397 3520.43 738.118 3532.43 745.802C3544.42 753.485 3561.46 757.33 3583.54 757.336ZM3937.73 806.395L3803.19 465.077L3884.55 465.1L3980.24 730.086L4076.07 465.153L4156.71 465.175L4022.69 806.418L3937.73 806.395ZM4367.17 813.714C4307.65 813.698 4261.57 799.045 4228.94 769.756C4196.31 740.467 4180 695.582 4180.02 635.102C4180.03 580.382 4193.96 537.186 4221.81 505.514C4249.66 473.841 4291.91 458.013 4348.55 458.029C4400.39 458.043 4439.26 471.734 4465.18 499.101C4491.57 525.989 4504.76 560.792 4504.75 603.512L4504.73 666.872L4254.89 666.803C4258.72 699.924 4270.71 722.727 4290.87 735.213C4311.03 747.698 4341.74 753.947 4383.02 753.959C4400.3 753.963 4418.06 752.288 4436.31 748.933C4454.55 745.578 4470.39 741.263 4483.83 735.987L4483.81 793.587C4468.45 800.302 4450.69 805.337 4430.53 808.692C4410.85 812.046 4389.73 813.72 4367.17 813.714ZM4254.9 615.683L4435.62 615.733L4435.63 591.973C4435.64 568.453 4429.16 550.211 4416.2 537.248C4403.25 523.804 4381.41 517.078 4350.69 517.07C4314.21 517.059 4289.01 524.972 4275.08 540.808C4261.64 556.645 4254.91 581.603 4254.9 615.683Z" fill="black"/>
</g>
<defs>
<clipPath id="clip0_142_12">
<rect width="4569.1" height="1120" fill="white"/>
</clipPath>
</defs>
</svg>
