<svg width="131" height="32" viewBox="0 0 131 32" fill="none" xmlns="http://www.w3.org/2000/svg">
<mask id="mask0_39_1169" style="mask-type:luminance" maskUnits="userSpaceOnUse" x="0" y="0" width="131" height="32">
<path d="M130.546 0H0V32H130.546V0Z" fill="white"/>
</mask>
<g mask="url(#mask0_39_1169)">
<path d="M16 0C24.8366 0 32 7.16344 32 16C32 24.8366 24.8366 32 16 32C7.16344 32 0 24.8366 0 16C0 7.16344 7.16344 0 16 0ZM26.2861 20.5713C24.549 20.5713 23.6276 21.4051 22.9551 22.0029C22.3419 22.548 21.9768 22.8574 21.1426 22.8574C20.3087 22.8573 19.9441 22.5478 19.3311 22.0029C18.6585 21.4051 17.7372 20.5713 16 20.5713C14.2629 20.5713 13.3414 21.4052 12.6689 22.0029C12.0559 22.5478 11.6914 22.8574 10.8574 22.8574C10.0232 22.8574 9.65813 22.548 9.04492 22.0029C8.37248 21.4052 7.45164 20.5714 5.71484 20.5713C5.0838 20.5713 4.57151 21.0829 4.57129 21.7139C4.57129 22.345 5.08366 22.8574 5.71484 22.8574C6.54864 22.8575 6.91345 23.1661 7.52637 23.7109C8.19888 24.3087 9.12025 25.1426 10.8574 25.1426C12.5944 25.1425 13.515 24.3087 14.1875 23.7109C14.8007 23.1659 15.1658 22.8574 16 22.8574C16.8342 22.8574 17.1993 23.1659 17.8125 23.7109C18.485 24.3087 19.4057 25.1425 21.1426 25.1426C22.8797 25.1426 23.8011 24.3087 24.4736 23.7109C25.0867 23.166 25.452 22.8574 26.2861 22.8574C26.9172 22.8573 27.4287 22.3449 27.4287 21.7139C27.4285 21.083 26.917 20.5715 26.2861 20.5713ZM26.2861 13.7139C24.5491 13.7139 23.6276 14.5477 22.9551 15.1455C22.3419 15.6906 21.9768 16 21.1426 16C20.3086 15.9999 19.9442 15.6905 19.3311 15.1455C18.6585 14.5477 17.7372 13.7139 16 13.7139C14.2629 13.7139 13.3414 14.5477 12.6689 15.1455C12.0558 15.6905 11.6915 16 10.8574 16C10.0232 16 9.65813 15.6906 9.04492 15.1455C8.37249 14.5478 7.45151 13.714 5.71484 13.7139C5.08366 13.7139 4.57129 14.2262 4.57129 14.8574C4.57143 15.4885 5.08375 16 5.71484 16C6.54878 16.0001 6.91327 16.3095 7.52637 16.8545C8.19887 17.4523 9.12029 18.2861 10.8574 18.2861C12.5941 18.2861 13.515 17.4522 14.1875 16.8545C14.8007 16.3094 15.1658 16 16 16C16.8343 16 17.1993 16.3094 17.8125 16.8545C18.4849 17.4522 19.4059 18.286 21.1426 18.2861C22.8796 18.2861 23.8011 17.4523 24.4736 16.8545C25.0868 16.3094 25.4519 16 26.2861 16C26.9171 15.9998 27.4286 15.4884 27.4287 14.8574C27.4287 14.2263 26.9172 13.714 26.2861 13.7139ZM26.2861 6.85742C24.5481 6.85742 23.6292 7.69162 22.959 8.29004C22.3492 8.83446 21.9875 9.14258 21.1543 9.14258C20.3192 9.14255 19.9515 8.83268 19.335 8.28711C18.6602 7.68997 17.7361 6.85742 16 6.85742C14.2629 6.85746 13.3414 7.69129 12.6689 8.28906C12.056 8.83385 11.6914 9.14254 10.8574 9.14258C10.0232 9.14258 9.65808 8.83409 9.04492 8.28906C8.37247 7.69133 7.45172 6.85757 5.71484 6.85742C5.08367 6.85742 4.57131 7.36883 4.57129 8C4.57129 8.63118 5.08366 9.14258 5.71484 9.14258C6.54873 9.14269 6.91334 9.45216 7.52637 9.99707C8.19888 10.5949 9.12025 11.4287 10.8574 11.4287C12.5943 11.4287 13.515 10.5948 14.1875 9.99707C14.8007 9.45202 15.1658 9.1426 16 9.14258C16.8353 9.14258 17.2037 9.45331 17.8203 9.99902C18.495 10.5961 19.4186 11.4287 21.1543 11.4287C22.8925 11.4287 23.8112 10.5936 24.4814 9.99512C25.0911 9.45083 25.4531 9.14258 26.2861 9.14258C26.9172 9.14241 27.4287 8.63108 27.4287 8C27.4287 7.36894 26.9172 6.85759 26.2861 6.85742Z" fill="white"/>
<path d="M38.5682 23.0188L35.9997 13.2672L38.2419 13.2679L39.9268 20.3655L41.8414 14.462L41.8419 13.2689L43.5494 13.2693L45.6662 20.3671L47.3551 13.2704L49.5768 13.271L47.0231 23.0212L44.9042 23.0206L42.8282 16.6428L40.7077 23.0194L38.5682 23.0188ZM55.7694 23.2293C54.0688 23.2288 52.7525 22.8102 51.8202 21.9734C50.8877 21.1365 50.422 19.8541 50.4222 18.1261C50.4228 16.5627 50.8208 15.3285 51.6165 14.4236C52.4122 13.5187 53.6191 13.0664 55.2374 13.0669C56.7185 13.0673 57.8294 13.4585 58.5697 14.2404C59.3237 15.0086 59.7005 16.003 59.7002 17.2236L59.6997 19.0338L52.5614 19.0318C52.6708 19.9782 53.0137 20.6297 53.5897 20.9864C54.1654 21.3432 55.0431 21.5217 56.2225 21.522C56.7162 21.5222 57.2237 21.4743 57.7448 21.3784C58.266 21.2826 58.7185 21.1593 59.1025 21.0085L59.1022 22.6542C58.6634 22.8461 58.156 22.99 57.5797 23.0858C57.0174 23.1817 56.414 23.2295 55.7694 23.2293ZM52.562 17.5713L57.7254 17.5727L57.7257 16.8939C57.7257 16.2219 57.5408 15.7007 57.1705 15.3303C56.8002 14.9462 56.1765 14.754 55.2988 14.7538C54.2565 14.7535 53.5362 14.9796 53.1385 15.432C52.7542 15.8845 52.5622 16.5976 52.562 17.5713ZM67.23 23.2325C66.5168 23.2323 65.8997 23.1361 65.3785 22.944C64.8577 22.7518 64.3777 22.4568 63.9388 22.059L63.8151 23.0258L61.8814 23.0253L61.8854 9.16016L64.1277 9.16078L64.1262 13.9128C64.9768 13.3507 65.9985 13.0699 67.1917 13.0702C68.5768 13.0706 69.6671 13.4686 70.4622 14.2643C71.2711 15.0462 71.6754 16.3149 71.6748 18.0703C71.6745 19.8395 71.2762 21.1422 70.4805 21.9786C69.6851 22.8149 68.6014 23.2329 67.23 23.2325ZM66.634 21.5455C67.6488 21.5458 68.362 21.258 68.7737 20.6821C69.1988 20.1062 69.4117 19.2354 69.4119 18.0697C69.4122 16.8628 69.1862 16.0125 68.734 15.5186C68.2814 15.0248 67.5682 14.7778 66.5945 14.7775C65.5797 14.7772 64.7568 15.0581 64.1259 15.6202L64.1245 20.5162C64.7688 21.2021 65.6054 21.5452 66.634 21.5455ZM73.4434 23.0285L73.4437 21.9177C73.8005 21.0812 74.2942 20.327 74.9254 19.6552C75.5702 18.9834 76.256 18.3322 76.9831 17.7015C77.5317 17.2217 77.9845 16.8172 78.3411 16.4882C78.7114 16.1454 78.9997 15.8369 79.2054 15.5627C79.4111 15.2885 79.5551 15.0074 79.6377 14.7194C79.72 14.4177 79.7611 14.068 79.7614 13.6703C79.7614 12.9571 79.556 12.4154 79.1445 12.045C78.7334 11.6746 78.0477 11.4892 77.0877 11.489C76.5665 11.4888 76.0317 11.5435 75.4831 11.6531C74.9482 11.7626 74.4337 11.9134 73.9399 12.1052L73.9405 10.1304C74.4205 9.96593 74.9899 9.83581 75.6482 9.73999C76.3065 9.63047 76.9305 9.57579 77.5202 9.57596C79.0014 9.57636 80.1188 9.9401 80.8731 10.6672C81.6271 11.3942 82.004 12.3886 82.0037 13.6503C82.0034 14.2812 81.8937 14.8434 81.674 15.3371C81.4545 15.817 81.1525 16.2764 80.7685 16.7151C80.3842 17.1402 79.9385 17.5789 79.4311 18.0313C78.8 18.5797 78.2031 19.1144 77.6408 19.6354C77.0919 20.1427 76.6462 20.698 76.3031 21.3013L82.1454 21.303L82.1451 23.031L73.4434 23.0285ZM86.4811 23.0322L83.9125 13.2806L86.1548 13.2812L87.8397 20.3788L89.7545 14.4754L89.7548 13.2822L91.4622 13.2827L93.5791 20.3804L95.268 13.2837L97.4897 13.2844L94.936 23.0345L92.8171 23.0339L90.7414 16.6562L88.6205 23.0328L86.4811 23.0322ZM101.79 23.2421C101.173 23.242 100.597 23.1321 100.062 22.9125C99.5408 22.6929 99.1225 22.3637 98.8074 21.9247C98.492 21.4721 98.3345 20.9166 98.3348 20.2583C98.3348 19.3257 98.6505 18.5784 99.2817 18.0163C99.9262 17.4405 100.914 17.1528 102.244 17.1531L105.371 17.154V16.722C105.371 16.2557 105.296 15.8854 105.145 15.6111C105.008 15.3367 104.748 15.1378 104.364 15.0143C103.993 14.8908 103.445 14.8289 102.718 14.8287C101.566 14.8284 100.489 14.9995 99.488 15.3421L99.4885 13.6758C99.9274 13.4976 100.462 13.3538 101.093 13.2442C101.724 13.1347 102.403 13.08 103.13 13.0802C104.556 13.0806 105.639 13.3689 106.38 13.9451C107.134 14.5213 107.511 15.4609 107.511 16.7637L107.509 23.038L105.596 23.0375L105.452 22.05C105.054 22.4339 104.56 22.7286 103.971 22.9342C103.395 23.1397 102.668 23.2424 101.79 23.2421ZM102.387 21.6377C103.059 21.6379 103.642 21.5284 104.136 21.3091C104.643 21.0761 105.055 20.7676 105.37 20.3837L105.371 18.6763L102.285 18.6754C101.627 18.6752 101.147 18.8054 100.845 19.0659C100.557 19.3126 100.413 19.6966 100.413 20.2178C100.412 20.7252 100.584 21.0886 100.927 21.3082C101.269 21.5277 101.756 21.6376 102.387 21.6377ZM112.507 23.0394L108.663 13.2875L110.987 13.2881L113.721 20.8592L116.459 13.2896L118.763 13.2903L114.934 23.0401L112.507 23.0394ZM124.776 23.2485C123.076 23.2481 121.759 22.8294 120.827 21.9926C119.895 21.1558 119.429 19.8733 119.429 18.1453C119.429 16.5819 119.827 15.3477 120.623 14.4428C121.419 13.5379 122.626 13.0856 124.244 13.0861C125.725 13.0865 126.836 13.4777 127.577 14.2596C128.331 15.0278 128.707 16.0222 128.707 17.2428L128.707 19.053L121.568 19.0511C121.678 19.9974 122.02 20.6489 122.596 21.0056C123.172 21.3624 124.05 21.5409 125.229 21.5412C125.723 21.5414 126.23 21.4935 126.752 21.3976C127.273 21.3018 127.725 21.1785 128.109 21.0278L128.109 22.6735C127.67 22.8653 127.163 23.0092 126.587 23.105C126.024 23.2009 125.421 23.2487 124.776 23.2485ZM121.569 17.5905L126.732 17.5919L126.732 16.9131C126.733 16.2411 126.547 15.7199 126.177 15.3495C125.807 14.9654 125.183 14.7732 124.305 14.773C123.263 14.7727 122.543 14.9988 122.145 15.4512C121.761 15.9037 121.569 16.6168 121.569 17.5905Z" fill="white"/>
</g>
</svg>
